<?xml version="1.0" encoding="UTF-8" standalone="no"?><!DOCTYPE svg PUBLIC "-//W3C//DTD SVG 1.1//EN" "http://www.w3.org/Graphics/SVG/1.1/DTD/svg11.dtd"><svg width="100%" height="100%" viewBox="0 0 2484 2484" version="1.1" xmlns="http://www.w3.org/2000/svg" xmlns:xlink="http://www.w3.org/1999/xlink" xml:space="preserve" xmlns:serif="http://www.serif.com/" style="fill-rule:evenodd;clip-rule:evenodd;stroke-linejoin:round;stroke-miterlimit:2;"><g><path d="M266.025,2084c0,11.217 -2.879,20.888 -8.588,29.05c-5.787,8.208 -13.724,14.475 -23.962,18.825c-10.267,4.304 -21.988,6.517 -35.283,6.517c-3.68,-0 -8.213,-0.25 -13.596,-0.709c-5.413,-0.441 -12.542,-1.8 -21.459,-3.958c-8.916,-2.146 -18.204,-5.3 -27.87,-9.504l-0,-43.921c9.095,5.609 17.929,10.208 26.691,13.921c8.738,3.65 18.079,5.562 28.121,5.562c9.192,0 15.146,-1.504 17.879,-4.612c2.729,-3.058 4.054,-5.908 4.054,-8.617c0,-4.808 -2.354,-8.808 -6.983,-12.171c-4.662,-3.354 -11.366,-6.754 -20.283,-10.258c-9.817,-4.108 -18.404,-8.667 -25.842,-13.529c-7.362,-4.858 -13.446,-10.908 -18.129,-18.221c-4.708,-7.312 -7.033,-15.979 -7.033,-25.992c-0,-9.616 2.375,-18.387 7.083,-26.141c4.763,-7.813 12.008,-14.008 21.708,-18.629c9.717,-4.709 21.617,-7.013 35.659,-7.013c9.975,0 19.204,0.946 27.691,2.909c8.492,1.945 15.475,4.104 21.038,6.508c5.479,2.454 9.287,4.304 11.317,5.708l-0,41.959c-7.313,-5.251 -15.501,-9.963 -24.467,-14.067c-9.013,-4.154 -18.6,-6.154 -28.863,-6.154c-6.716,-0 -11.575,1.245 -14.604,3.8c-3.004,2.6 -4.479,5.754 -4.479,9.566c-0,3.5 1.475,6.609 4.479,9.163c3.029,2.6 8.413,5.708 16.15,9.466c13.771,6.463 24.813,12.267 33.104,17.421c8.213,5.167 14.721,11.125 19.4,17.879c4.713,6.713 7.067,15.18 7.067,25.242Z" style="fill:#009ad9;fill-rule:nonzero;"/><path d="M340.242,1974.23c-0,5.413 -1.934,10.071 -5.809,13.821c-3.862,3.808 -8.487,5.658 -13.825,5.658c-3.579,0 -6.883,-0.854 -9.862,-2.554c-2.958,-1.75 -5.284,-4.054 -7.067,-7.058c-1.7,-2.95 -2.55,-6.258 -2.55,-9.867c0,-5.304 1.879,-9.966 5.658,-13.825c3.78,-3.846 8.442,-5.804 13.821,-5.804c5.338,0 9.963,1.958 13.825,5.804c3.875,3.859 5.809,8.521 5.809,13.825Zm3.729,161.805l-46.571,-0l-0,-131.451l46.571,0l-0,131.451Z" style="fill:#009ad9;fill-rule:nonzero;"/><path d="M516.446,2136.04l-46.525,-0l-0,-70.863c-0,-7.262 -1.175,-13.567 -3.534,-18.925c-2.404,-5.412 -7.583,-8.067 -15.57,-8.067c-3.805,0 -7.163,0.705 -10.042,2.159c-2.879,1.345 -5.433,3.254 -7.737,5.454c-2.301,2.204 -4.159,4.412 -5.709,6.458c-1.604,2.059 -3.158,4.204 -4.808,6.558l-0,77.226l-46.475,-0l-0,-131.451l46.475,0l-0,18.875c7.308,-7.866 14.671,-13.375 22.033,-16.47c7.392,-3.155 15.554,-4.713 24.617,-4.713c31.471,0 47.275,18.829 47.275,56.533l-0,77.226Z" style="fill:#009ad9;fill-rule:nonzero;"/><path d="M684.708,2136.04l-46.5,-0l0,-70.863c0,-7.262 -1.15,-13.567 -3.554,-18.925c-2.354,-5.412 -7.537,-8.067 -15.554,-8.067c-3.779,0 -7.129,0.705 -10.008,2.159c-2.88,1.345 -5.513,3.254 -7.738,5.454c-2.308,2.204 -4.233,4.412 -5.762,6.458c-1.55,2.059 -3.155,4.204 -4.804,6.558l-0,77.226l-46.471,-0l-0,-131.451l46.471,0l-0,18.875c7.358,-7.866 14.67,-13.375 22.033,-16.47c7.358,-3.155 15.571,-4.713 24.583,-4.713c31.554,0 47.304,18.829 47.304,56.533l0,77.226Z" style="fill:#009ad9;fill-rule:nonzero;"/><path d="M793.454,2054.81c0,-6.612 -2.304,-11.912 -6.787,-15.92c-4.534,-4.009 -9.588,-6.067 -15.196,-6.067c-7.163,-0 -12.771,2.454 -16.879,7.262c-4.059,4.809 -6.084,9.975 -6.084,15.275c0,3.713 0.879,7.167 2.629,10.321c1.75,3.208 4.255,5.758 7.513,7.663c3.204,2.004 7.062,2.954 11.546,2.954c6.708,-0 12.267,-2.159 16.65,-6.363c4.404,-4.204 6.608,-9.208 6.608,-15.125Zm9.292,105.767c-0,-5.758 -3.109,-9.458 -9.242,-11.112c-6.133,-1.705 -12.5,-2.505 -19.054,-2.505c-10.767,0 -18.504,1.105 -23.313,3.404c-4.758,2.259 -7.162,5.909 -7.162,10.863c0,9.821 9.892,14.725 29.671,14.725c8.917,-0 15.95,-1.246 21.183,-3.75c5.283,-2.617 7.917,-6.412 7.917,-11.625Zm42.087,-127.95l-22.983,0c8.112,7.067 12.171,15.671 12.171,25.942c-0,5.462 -1.179,10.616 -3.438,15.621c-2.275,5.008 -5.658,9.47 -10.091,13.329c-4.405,3.85 -9.909,7.008 -16.421,9.458c-6.463,2.454 -13.921,3.954 -22.263,4.513c-10.762,0.395 -16.145,3.304 -16.145,8.608c-0,2.108 0.67,3.608 2.079,4.508c1.375,0.95 3.554,1.704 6.508,2.104c2.979,0.5 7.983,1.055 15.05,1.704c7.983,0.646 15.475,1.855 22.358,3.555c6.888,1.75 13.267,5.354 19.255,10.866c5.904,5.509 8.916,13.429 8.916,23.638c0,8.162 -2.258,15.366 -6.687,21.683c-4.409,6.313 -11.567,11.221 -21.484,14.721c-9.941,3.504 -23.012,5.317 -39.287,5.317c-23.438,-0 -40.613,-3.159 -51.608,-9.421c-10.946,-6.313 -16.421,-14.675 -16.421,-25.188c-0,-2.804 0.7,-6.108 2.125,-9.812c1.404,-3.767 4.429,-7.313 9.012,-10.721c4.613,-3.45 11.321,-5.758 20.133,-7.012c-3.154,-1.096 -5.837,-3.259 -8.062,-6.513c-2.254,-3.204 -3.304,-6.608 -3.304,-10.113c-0,-4.558 1.554,-9.058 4.679,-13.57c3.158,-4.454 8.242,-7.363 15.329,-8.667c-9.817,-2.604 -18.304,-7.463 -25.471,-14.562c-7.133,-7.167 -10.716,-16.438 -10.716,-27.805c-0,-8.558 1.654,-16.12 4.958,-22.579c3.304,-6.462 7.917,-11.725 13.775,-15.779c5.867,-4.058 12.642,-7.004 20.379,-8.963c7.788,-1.904 16.229,-2.9 25.471,-2.9l72.183,0l0,28.038Z" style="fill:#009ad9;fill-rule:nonzero;"/><path d="M988.458,2011.69l-17.175,46.633c-7.033,-6.771 -14.2,-10.125 -21.412,-10.125c-6.558,-0 -12.221,2.258 -17.025,6.666c-4.754,4.459 -9.338,12.671 -13.721,24.638l-0,56.538l-46.55,-0l-0,-131.451l46.55,0l-0,31.796c2.879,-7.862 8.046,-15.475 15.5,-22.991c7.413,-7.409 16.1,-11.113 26.092,-11.113c5.233,0 9.812,0.754 13.77,2.308c3.88,1.55 8.592,3.896 13.971,7.101Z" style="fill:#009ad9;fill-rule:nonzero;"/><path d="M1138.14,2136.04l-46.596,-0l-0,-18.73c-6.563,7.113 -13.45,12.317 -20.583,15.879c-7.213,3.45 -15.846,5.209 -25.938,5.209c-19.858,-0 -32.75,-5.809 -38.588,-17.379c-5.858,-11.621 -8.783,-24.696 -8.783,-39.163l0,-77.267l46.617,0l-0,71.059c-0,7.162 1.179,13.366 3.533,18.775c2.404,5.412 7.508,8.067 15.475,8.067c6.784,-0 12.167,-1.901 16.125,-5.809c3.929,-3.912 7.979,-8.817 12.142,-14.825l-0,-77.267l46.596,0l-0,131.451Z" style="fill:#009ad9;fill-rule:nonzero;"/><path d="M1308.32,2136.04l-46.55,-0l-0,-70.863c-0,-7.262 -1.18,-13.567 -3.534,-18.925c-2.354,-5.412 -7.558,-8.067 -15.575,-8.067c-3.783,0 -7.112,0.705 -9.991,2.159c-2.88,1.345 -5.484,3.254 -7.784,5.454c-2.229,2.204 -4.158,4.412 -5.708,6.458c-1.558,2.059 -3.163,4.204 -4.813,6.558l0,77.226l-46.495,-0l-0,-131.451l46.495,0l0,18.875c7.313,-7.866 14.671,-13.375 22.034,-16.47c7.392,-3.155 15.604,-4.713 24.621,-4.713c31.466,0 47.3,18.829 47.3,56.533l-0,77.226Z" style="fill:#009ad9;fill-rule:nonzero;"/><path d="M1428.6,2094.22l-0,-50.229c-5.35,-3.063 -9.608,-5.159 -12.663,-6.463c-3.058,-1.358 -6.658,-1.95 -10.766,-1.95c-7.313,0 -13.425,3.105 -18.334,9.309c-4.858,6.216 -7.262,14.625 -7.262,25.291c-0,11.671 2.55,20.084 7.717,25.442c5.108,5.258 11.012,7.862 17.879,7.862c5.55,0 10.062,-0.854 13.512,-2.604c3.458,-1.75 6.821,-4.008 9.917,-6.658Zm46.679,41.813l-46.679,-0l-0,-11.813c-4.909,4.104 -10.063,7.508 -15.525,10.158c-5.45,2.654 -13.021,4.013 -22.634,4.013c-9.558,-0 -18.979,-2.408 -28.191,-7.117c-9.163,-4.704 -16.775,-12.121 -22.733,-22.133c-5.909,-10.013 -8.917,-22.688 -8.917,-37.904c-0,-11.971 2.254,-23.192 6.708,-33.663c4.513,-10.466 11.517,-18.975 21.084,-25.483c9.57,-6.563 21.233,-9.817 35.104,-9.817c8.616,0 15.575,0.95 20.937,2.8c5.363,1.963 10.059,4.367 14.167,7.263l-0,-55.284l46.679,0l0,178.98Z" style="fill:#009ad9;fill-rule:nonzero;"/><path d="M1576.38,2104.29l0,-31.095c-11.02,4.454 -19.025,8.458 -24.137,12.07c-5.109,3.551 -7.608,8.409 -7.608,14.525c-0,4.35 1.304,7.705 3.804,10.059c2.554,2.358 5.454,3.454 8.812,3.454c3.2,0 6.358,-0.85 9.513,-2.604c3.158,-1.746 6.362,-3.904 9.616,-6.409Zm64.759,25.188c-6.871,2.65 -13.184,4.808 -18.942,6.462c-5.758,1.605 -12.662,2.459 -20.725,2.459c-7.721,-0 -13.021,-1.413 -16.029,-4.063c-3.054,-2.7 -5.15,-6.004 -6.458,-9.912c-5.009,4.054 -10.571,7.408 -16.671,10.012c-6.117,2.604 -14.129,3.963 -24.042,3.963c-9.571,-0 -17.279,-1.658 -23.133,-4.963c-5.971,-3.3 -10.075,-7.508 -12.475,-12.516c-2.3,-5.113 -3.504,-10.271 -3.504,-15.63c-0,-8.004 2.058,-14.775 6.162,-20.025c4.058,-5.316 9.508,-9.616 16.425,-12.97c6.858,-3.355 16.079,-6.917 27.446,-10.471c6.4,-2.108 11.258,-3.7 14.567,-4.754c3.362,-1.05 5.862,-1.9 7.466,-2.509c1.654,-0.604 3.354,-1.404 5.154,-2.304c0,-6.412 -1.304,-11.371 -3.858,-14.967c-2.6,-3.662 -8.213,-5.462 -16.771,-5.462c-10.171,0 -19.579,2.254 -28.296,6.704c-8.716,4.513 -16.683,10.275 -23.941,17.338l-0,-35.659c5.816,-4.104 12.021,-7.462 18.787,-10.171c6.709,-2.604 13.663,-4.549 21.025,-5.858c7.313,-1.246 14.779,-1.9 22.238,-1.9c18.979,0 33.358,3.65 42.975,11.017c9.554,7.358 14.312,17.529 14.312,30.45l0,50.725c0,4.808 0.504,8.412 1.408,10.767c0.901,2.354 2.55,3.612 4.955,3.612c2.904,0 6.858,-1.308 11.925,-3.813l-0,24.438Z" style="fill:#009ad9;fill-rule:nonzero;"/><rect x="1658.01" y="1957.06" width="46.629" height="178.979" style="fill:#009ad9;fill-rule:nonzero;"/><rect x="1738.99" y="1957.06" width="46.621" height="178.979" style="fill:#009ad9;fill-rule:nonzero;"/><path d="M1862.83,1974.23c0,5.413 -1.9,10.071 -5.808,13.821c-3.862,3.808 -8.521,5.658 -13.821,5.658c-3.562,0 -6.921,-0.854 -9.866,-2.554c-2.959,-1.75 -5.309,-4.054 -7.067,-7.058c-1.7,-2.95 -2.55,-6.258 -2.55,-9.867c-0,-5.304 1.854,-9.966 5.662,-13.825c3.804,-3.846 8.409,-5.804 13.821,-5.804c5.3,0 9.959,1.958 13.821,5.804c3.908,3.859 5.808,8.521 5.808,13.825Zm3.759,161.805l-46.63,-0l0,-131.451l46.63,0l-0,131.451Z" style="fill:#009ad9;fill-rule:nonzero;"/><path d="M1970.3,2104.29l0,-31.095c-11.071,4.454 -19.029,8.458 -24.192,12.07c-5.054,3.551 -7.562,8.409 -7.562,14.525c0,4.35 1.233,7.705 3.812,10.059c2.555,2.358 5.455,3.454 8.863,3.454c3.1,0 6.304,-0.85 9.458,-2.604c3.159,-1.746 6.363,-3.904 9.621,-6.409Zm64.7,25.188c-6.812,2.65 -13.083,4.808 -18.883,6.462c-5.759,1.605 -12.663,2.459 -20.775,2.459c-7.658,-0 -12.971,-1.413 -16.029,-4.063c-2.971,-2.7 -5.104,-6.004 -6.463,-9.912c-4.958,4.054 -10.517,7.408 -16.621,10.012c-6.116,2.604 -14.179,3.963 -24.041,3.963c-9.509,-0 -17.279,-1.658 -23.134,-4.963c-5.908,-3.3 -10.075,-7.508 -12.421,-12.516c-2.354,-5.113 -3.562,-10.271 -3.562,-15.63c0,-8.004 2.063,-14.775 6.167,-20.025c4.058,-5.316 9.512,-9.616 16.425,-12.97c6.854,-3.355 16.029,-6.917 27.375,-10.471c6.425,-2.108 11.333,-3.7 14.695,-4.754c3.305,-1.05 5.759,-1.9 7.413,-2.509c1.65,-0.604 3.354,-1.404 5.154,-2.304c0,-6.412 -1.304,-11.371 -3.908,-14.967c-2.554,-3.662 -8.163,-5.462 -16.721,-5.462c-10.221,0 -19.583,2.254 -28.3,6.704c-8.717,4.513 -16.729,10.275 -23.883,17.338l-0,-35.659c5.758,-4.104 11.962,-7.462 18.729,-10.171c6.708,-2.604 13.667,-4.549 20.975,-5.858c7.312,-1.246 14.783,-1.9 22.292,-1.9c18.979,0 33.304,3.65 42.899,11.017c9.58,7.358 14.388,17.529 14.388,30.45l0,50.725c0,4.808 0.5,8.412 1.404,10.767c0.9,2.354 2.554,3.612 4.959,3.612c2.958,0 6.854,-1.308 11.866,-3.813l0,24.438Z" style="fill:#009ad9;fill-rule:nonzero;"/><path d="M2193.76,2136.04l-46.475,-0l0,-70.863c0,-7.262 -1.204,-13.567 -3.612,-18.925c-2.354,-5.412 -7.504,-8.067 -15.521,-8.067c-3.808,0 -7.163,0.705 -10.013,2.159c-2.908,1.345 -5.512,3.254 -7.766,5.454c-2.304,2.204 -4.204,4.412 -5.759,6.458c-1.554,2.059 -3.158,4.204 -4.808,6.558l0,77.226l-46.471,-0l0,-131.451l46.471,0l0,18.875c7.358,-7.866 14.671,-13.375 22.033,-16.47c7.359,-3.155 15.576,-4.713 24.588,-4.713c31.55,0 47.333,18.829 47.333,56.533l0,77.226Z" style="fill:#009ad9;fill-rule:nonzero;"/><path d="M2346.59,2008.84l-62.85,92.849l61.6,0l-0,34.351l-134.821,-0l-0,-4.255l62.85,-92.845l-57.533,-0l-0,-34.351l130.754,0l-0,4.251Z" style="fill:#009ad9;fill-rule:nonzero;"/><path d="M2421.11,1383.61c-2.763,-92.079 -41.7,-175.404 -104.305,-239.625c-7.075,17.109 -15.087,33.967 -24.104,50.392c-41.304,75.337 -102.133,140.688 -175.837,189.017c-137.35,90.216 -423.704,187.604 -646.946,187.604c-61.979,-0 -116.063,-7.7 -160.808,-22.771c150.416,142.567 509.408,236.846 694.691,231.204c79.904,-2.404 154.096,-24.191 217.092,-60.096c123.796,-70.512 204.421,-195.6 200.217,-335.725Z" style="fill:#009ad9;fill-rule:nonzero;"/><path d="M1001.23,1574.42c-100.592,-0 -223.892,-19.671 -347.171,-55.404c-114.55,-33.204 -220.646,-77.917 -291.142,-122.7c-94.704,-60.271 -166.725,-145.946 -206.95,-244.95c-58.045,62.975 -93.945,143.087 -96.733,231.183c-6.512,211.488 180.179,388.913 416.929,396.321c184.188,5.646 539.817,-87.054 692.063,-227.967c-46.308,15.584 -102.492,23.517 -166.996,23.517Z" style="fill:#009ad9;fill-rule:nonzero;"/><path d="M806.288,1261.97c-111.646,-121.875 -211.434,-273.871 -254.263,-387.209c-31.312,-82.987 -41.771,-170.199 -31.375,-254.108c-113.058,11.292 -215.825,67.771 -277.358,164.45c-113.504,178.554 -43.546,426.392 156.291,553.575c161.663,102.746 536.884,208.646 734.842,151.208c-122.046,-27.05 -243.238,-135.183 -328.137,-227.916Z" style="fill:#009ad9;fill-rule:nonzero;"/><path d="M1881.77,619.142c-19.734,-141.096 -106.121,-262.284 -237.875,-310.234c-4.696,-1.695 -9.354,-3.283 -14.075,-4.779c-1.596,-0.496 -3.196,-0.925 -4.796,-1.396c-3.134,-0.954 -6.267,-1.891 -9.408,-2.733c-1.901,-0.508 -3.805,-0.954 -5.771,-1.433c-2.788,-0.713 -5.634,-1.434 -8.434,-2.059c-2.091,-0.479 -4.129,-0.883 -6.22,-1.304c-2.68,-0.546 -5.355,-1.083 -8.1,-1.592c-2.096,-0.387 -4.259,-0.699 -6.417,-1.049c-2.629,-0.421 -5.246,-0.838 -7.875,-1.2c-2.204,-0.309 -4.4,-0.58 -6.542,-0.821c-2.6,-0.313 -5.246,-0.609 -7.837,-0.834c-2.23,-0.225 -4.396,-0.396 -6.625,-0.579c-2.571,-0.183 -5.146,-0.337 -7.775,-0.491c-2.18,-0.109 -4.421,-0.205 -6.663,-0.301c-2.558,-0.087 -5.121,-0.129 -7.679,-0.158c-2.196,-0.021 -4.396,-0.041 -6.529,-0.029c-3.175,0.021 -6.346,0.1 -9.517,0.229c-1.837,0.058 -3.733,0.092 -5.571,0.179c-4.066,0.188 -8.129,0.484 -12.179,0.825c-0.921,0.075 -1.846,0.113 -2.762,0.217c-4.942,0.454 -9.871,1.008 -14.792,1.679c-1.579,0.192 -3.146,0.471 -4.717,0.683c-3.408,0.526 -6.875,1.038 -10.275,1.625c-1.816,0.326 -3.629,0.692 -5.445,1.046c-3.175,0.592 -6.346,1.242 -9.517,1.942c-1.825,0.4 -3.709,0.821 -5.529,1.25c-3.221,0.754 -6.425,1.558 -9.625,2.396c-1.7,0.441 -3.396,0.879 -5.092,1.346c-3.537,0.975 -7.121,2.041 -10.646,3.145c-1.308,0.396 -2.562,0.771 -3.871,1.18c-9.841,3.133 -19.596,6.691 -29.233,10.654c-0.75,0.283 -1.487,0.617 -2.237,0.937c-3.971,1.675 -7.992,3.413 -11.98,5.246c-1.187,0.517 -2.308,1.088 -3.491,1.617c-3.584,1.683 -7.15,3.408 -10.754,5.225c-1.171,0.592 -2.396,1.216 -3.563,1.817c-3.65,1.879 -7.212,3.812 -10.758,5.77c-1.067,0.584 -2.075,1.13 -3.075,1.721c-4.05,2.275 -8.071,4.646 -12.059,7.079c-0.504,0.3 -0.954,0.559 -1.458,0.863c-9.246,5.712 -18.321,11.808 -27.213,18.283l-0.816,0.625c-4.004,2.925 -7.967,5.921 -11.896,9.013l-0.867,0.675c48.509,51.25 87.009,112.866 112.513,180.47c47.1,124.701 72.704,326.626 63.662,502.417c-5.196,100.267 -20.829,185.617 -46.554,253.675c-15.441,40.846 -34.408,75.079 -56.766,102.583c1.437,-0.537 2.929,-1.083 4.433,-1.591c1.208,-0.463 2.354,-0.85 3.512,-1.325c3.121,-1.167 6.254,-2.446 9.396,-3.784l1.05,-0.412c3.338,-1.433 6.684,-2.946 10.1,-4.504c1.15,-0.504 2.358,-1.096 3.513,-1.679c2.321,-1.075 4.645,-2.171 6.971,-3.371c1.299,-0.679 2.662,-1.375 3.962,-2.013c2.237,-1.183 4.483,-2.329 6.725,-3.558c1.283,-0.717 2.625,-1.371 3.967,-2.104c2.45,-1.379 4.921,-2.796 7.387,-4.171c1.042,-0.625 2.079,-1.233 3.121,-1.867c3.529,-2.012 6.996,-4.137 10.471,-6.262c0.816,-0.529 1.633,-1.079 2.45,-1.554c2.766,-1.704 5.471,-3.492 8.179,-5.263c1.321,-0.841 2.642,-1.704 3.896,-2.562c2.3,-1.529 4.604,-3.075 6.904,-4.65c1.333,-0.93 2.721,-1.863 4.104,-2.809c2.325,-1.608 4.592,-3.254 6.913,-4.908c1.296,-0.904 2.537,-1.8 3.837,-2.717c2.763,-2.066 5.588,-4.166 8.359,-6.233c0.775,-0.596 1.554,-1.179 2.329,-1.721c3.504,-2.712 7.071,-5.425 10.575,-8.171c1.062,-0.854 2.191,-1.729 3.258,-2.65c2.483,-1.954 4.971,-3.925 7.454,-5.983c1.358,-1.071 2.663,-2.217 4.013,-3.3c2.291,-1.863 4.575,-3.804 6.858,-5.696c1.321,-1.125 2.696,-2.3 4.062,-3.433c2.338,-2.071 4.725,-4.108 7.113,-6.217c1.213,-1.016 2.367,-2.021 3.579,-3.104c3.492,-3.046 6.979,-6.187 10.521,-9.375l0.992,-0.917c3.204,-2.946 6.4,-5.87 9.591,-8.858c1.175,-1.167 2.409,-2.287 3.584,-3.4c2.35,-2.225 4.691,-4.463 7.033,-6.725c1.292,-1.242 2.642,-2.558 3.938,-3.813c2.262,-2.208 4.529,-4.437 6.787,-6.612c1.254,-1.3 2.575,-2.6 3.887,-3.85c2.505,-2.5 5.005,-5.025 7.501,-7.558c0.958,-1.038 1.92,-2.005 2.879,-2.984c3.475,-3.491 6.883,-7.066 10.275,-10.616c0.854,-0.892 1.7,-1.825 2.55,-2.721c2.575,-2.733 5.15,-5.45 7.766,-8.221c1.209,-1.321 2.471,-2.687 3.675,-4.017c2.221,-2.387 4.434,-4.783 6.58,-7.191c1.32,-1.413 2.633,-2.855 3.895,-4.267c2.225,-2.45 4.384,-4.913 6.596,-7.379c1.217,-1.354 2.371,-2.671 3.579,-4c2.746,-3.146 5.475,-6.308 8.259,-9.459c0.525,-0.666 1.112,-1.324 1.7,-1.962c3.275,-3.821 6.533,-7.633 9.779,-11.462c1.017,-1.225 2.029,-2.463 3.104,-3.696c2.2,-2.684 4.45,-5.375 6.687,-8.046c1.188,-1.483 2.434,-2.971 3.613,-4.434c2.096,-2.512 4.121,-5.062 6.196,-7.587c1.175,-1.463 2.404,-2.958 3.571,-4.454c2.204,-2.7 4.391,-5.438 6.516,-8.179c1.038,-1.254 2.029,-2.504 3.004,-3.759c3.117,-3.962 6.221,-7.933 9.234,-11.883c0.492,-0.621 0.925,-1.217 1.412,-1.842c2.6,-3.391 5.238,-6.791 7.821,-10.225c1.033,-1.379 2.054,-2.791 3.083,-4.175c2.034,-2.683 3.996,-5.337 6.013,-8.025c1.104,-1.533 2.271,-3.041 3.371,-4.583c1.9,-2.633 3.85,-5.242 5.729,-7.883c1.046,-1.455 2.154,-2.938 3.196,-4.392c2.179,-3.021 4.279,-6.012 6.433,-9.008c0.75,-1.071 1.521,-2.146 2.271,-3.188c2.792,-4.012 5.571,-8.025 8.358,-12.037c0.784,-1.134 1.546,-2.238 2.325,-3.371c1.988,-2.934 4.025,-5.9 5.984,-8.829c0.991,-1.5 2.033,-2.967 3.012,-4.463c1.742,-2.6 3.471,-5.229 5.188,-7.825c1.062,-1.541 2.058,-3.083 3.05,-4.596c1.746,-2.691 3.471,-5.375 5.191,-8.033c0.942,-1.375 1.842,-2.775 2.721,-4.146c2.229,-3.558 4.488,-7.108 6.725,-10.621c0.275,-0.495 0.617,-0.962 0.888,-1.429c2.487,-3.979 4.937,-7.921 7.354,-11.879c0.787,-1.275 1.558,-2.55 2.342,-3.858c1.645,-2.692 3.279,-5.413 4.895,-8.125c0.884,-1.467 1.754,-2.959 2.625,-4.417c1.517,-2.567 3.013,-5.092 4.496,-7.613c0.85,-1.475 1.7,-2.916 2.538,-4.383c1.583,-2.75 3.146,-5.462 4.696,-8.196c0.612,-1.175 1.299,-2.354 1.966,-3.529c2.188,-3.833 4.275,-7.679 6.384,-11.479c0.362,-0.725 0.775,-1.417 1.137,-2.146c1.683,-3.112 3.342,-6.192 4.971,-9.275c0.717,-1.317 1.412,-2.633 2.117,-3.971c1.333,-2.487 2.587,-4.97 3.887,-7.441c0.725,-1.384 1.446,-2.792 2.1,-4.171c1.271,-2.45 2.462,-4.879 3.7,-7.308c0.658,-1.292 1.262,-2.617 1.908,-3.9c1.425,-2.867 2.817,-5.717 4.129,-8.55c0.409,-0.792 0.771,-1.592 1.176,-2.38c1.691,-3.558 3.337,-7.116 4.941,-10.646c0.421,-0.979 0.875,-1.97 1.3,-2.945c1.171,-2.542 2.279,-5.1 3.413,-7.604c0.504,-1.251 1.058,-2.492 1.612,-3.73c0.958,-2.25 1.9,-4.512 2.821,-6.762c0.537,-1.238 1.012,-2.475 1.538,-3.709c0.941,-2.3 1.85,-4.608 2.741,-6.904c0.446,-1.037 0.842,-2.116 1.279,-3.145c1.246,-3.321 2.496,-6.584 3.642,-9.767c27.296,-75.092 34.512,-152.067 24.442,-223.879Z" style="fill:#009ad9;fill-rule:nonzero;"/><path d="M1015.62,1060.95c-11.183,-175.608 11.85,-377.791 57.379,-503.121c24.992,-68.62 62.488,-130.229 110.263,-181.866c-0.542,-0.43 -1.125,-0.838 -1.667,-1.263c-3.338,-2.567 -6.696,-5.062 -10.117,-7.5c-1.162,-0.833 -2.308,-1.654 -3.479,-2.475c-3.133,-2.183 -6.287,-4.325 -9.462,-6.446c-1.113,-0.737 -2.254,-1.5 -3.404,-2.25c-3.859,-2.512 -7.775,-4.966 -11.725,-7.354l-1.051,-0.671c-4.374,-2.608 -8.787,-5.158 -13.233,-7.608c-0.996,-0.546 -2.037,-1.067 -3.042,-1.638c-3.387,-1.808 -6.77,-3.579 -10.166,-5.32c-1.429,-0.692 -2.829,-1.4 -4.263,-2.105c-3.171,-1.558 -6.329,-3.045 -9.525,-4.525c-1.404,-0.645 -2.775,-1.274 -4.166,-1.912c-3.913,-1.733 -7.854,-3.408 -11.788,-5.021c-0.616,-0.254 -1.196,-0.5 -1.808,-0.754c-4.533,-1.808 -9.088,-3.554 -13.667,-5.2c-1.354,-0.475 -2.7,-0.917 -4.029,-1.379c-3.279,-1.146 -6.6,-2.259 -9.896,-3.292c-1.65,-0.517 -3.3,-1.046 -4.954,-1.541c-3.154,-0.942 -6.287,-1.863 -9.458,-2.734c-1.588,-0.433 -3.171,-0.879 -4.763,-1.296c-3.987,-1.025 -7.958,-2.012 -11.971,-2.912c-0.716,-0.15 -1.429,-0.354 -2.116,-0.5c-4.675,-1.038 -9.334,-1.954 -14.034,-2.796c-1.525,-0.283 -3.021,-0.5 -4.546,-0.763c-3.274,-0.541 -6.549,-1.079 -9.833,-1.533c-1.766,-0.229 -3.5,-0.466 -5.237,-0.671c-3.221,-0.404 -6.446,-0.762 -9.675,-1.083c-1.621,-0.15 -3.238,-0.337 -4.855,-0.467c-4.295,-0.366 -8.624,-0.666 -12.962,-0.858c-0.471,-0.025 -0.938,-0.087 -1.408,-0.112c-4.796,-0.196 -9.592,-0.28 -14.392,-0.296c-1.496,-0.004 -3.025,0.025 -4.554,0.037c-3.254,0.029 -6.509,0.088 -9.763,0.2c-1.691,0.059 -3.379,0.163 -5.071,0.246c-3.204,0.154 -6.404,0.383 -9.608,0.621c-1.604,0.146 -3.208,0.254 -4.812,0.391c-3.713,0.355 -7.425,0.776 -11.134,1.238c-1.02,0.15 -2.062,0.242 -3.104,0.371c-4.729,0.654 -9.483,1.408 -14.237,2.25c-1.05,0.175 -2.13,0.421 -3.184,0.608c-3.65,0.696 -7.3,1.434 -10.941,2.242c-1.609,0.358 -3.213,0.75 -4.817,1.129c-3.167,0.725 -6.329,1.521 -9.454,2.358c-1.7,0.475 -3.371,0.921 -5.038,1.388c-3.241,0.912 -6.475,1.883 -9.708,2.912c-1.45,0.459 -2.933,0.896 -4.379,1.375c-4.663,1.538 -9.283,3.146 -13.921,4.879c-197.908,74.771 -290.554,315.076 -206.921,536.692c1.204,3.196 2.475,6.442 3.779,9.713c0.421,1.062 0.863,2.108 1.292,3.179c0.95,2.283 1.883,4.546 2.846,6.862c0.541,1.225 1.062,2.454 1.583,3.688c0.975,2.212 1.95,4.475 2.938,6.733c0.562,1.204 1.091,2.454 1.637,3.654c1.142,2.546 2.317,5.08 3.508,7.625c0.446,0.984 0.876,1.925 1.33,2.884c1.646,3.516 3.362,7.058 5.096,10.6c0.379,0.77 0.779,1.558 1.162,2.333c1.379,2.825 2.808,5.667 4.242,8.529c0.662,1.275 1.308,2.563 1.979,3.871c1.233,2.383 2.483,4.8 3.75,7.229c0.737,1.413 1.475,2.792 2.225,4.204c1.287,2.438 2.591,4.884 3.912,7.342c0.729,1.321 1.45,2.637 2.184,3.963c1.625,2.991 3.279,5.966 4.95,8.949c0.454,0.817 0.887,1.617 1.341,2.43c2.104,3.77 4.28,7.533 6.459,11.312c0.729,1.246 1.475,2.5 2.183,3.75c1.529,2.625 3.067,5.225 4.633,7.867c0.892,1.496 1.796,3.025 2.704,4.558c1.455,2.408 2.925,4.825 4.38,7.246c0.979,1.579 1.929,3.129 2.887,4.708c1.542,2.525 3.109,5.03 4.679,7.538c0.9,1.429 1.788,2.887 2.692,4.321c2.321,3.696 4.663,7.366 7.033,11.046c0.667,1.049 1.371,2.124 2.071,3.175c1.979,3.07 3.975,6.112 5.967,9.191c1.071,1.617 2.162,3.233 3.217,4.854c1.579,2.371 3.162,4.75 4.766,7.1c1.179,1.775 2.371,3.521 3.567,5.271c1.55,2.279 3.075,4.563 4.637,6.813c1.225,1.766 2.446,3.566 3.684,5.333c1.646,2.379 3.308,4.758 5.004,7.137c1.129,1.642 2.275,3.284 3.441,4.925c2.68,3.755 5.355,7.509 8.08,11.292c1.25,1.725 2.516,3.45 3.779,5.175c1.633,2.254 3.266,4.484 4.916,6.738c1.446,1.95 2.88,3.871 4.338,5.821c1.525,2.033 3.017,4.066 4.554,6.095c1.508,2.005 3.004,4 4.521,6c1.512,1.979 3.029,3.95 4.517,5.9c1.558,2.017 3.108,4.034 4.671,6.046c1.558,2.004 3.099,4.004 4.67,6.004c2.78,3.55 5.575,7.059 8.388,10.596c1.579,1.984 3.154,3.967 4.721,5.942c1.745,2.133 3.479,4.258 5.212,6.387c1.421,1.746 2.813,3.467 4.242,5.179c1.779,2.167 3.567,4.359 5.383,6.513c1.367,1.658 2.771,3.317 4.146,4.971c1.858,2.208 3.687,4.391 5.554,6.566c1.313,1.559 2.634,3.109 3.967,4.663c1.937,2.263 3.887,4.546 5.85,6.821c0.779,0.887 1.567,1.766 2.346,2.654c4.3,4.95 8.654,9.867 13.041,14.746c1.05,1.196 2.125,2.404 3.209,3.592c2.087,2.324 4.183,4.637 6.283,6.916c1.217,1.354 2.433,2.675 3.654,3.996c2.1,2.292 4.2,4.542 6.338,6.812c1.2,1.28 2.371,2.55 3.575,3.825c2.2,2.317 4.366,4.634 6.575,6.905c0.962,1.033 1.929,2.025 2.92,3.054c7.792,8.096 15.638,16.058 23.563,23.796c0.925,0.908 1.846,1.82 2.796,2.725c2.312,2.287 4.654,4.554 7,6.812c1.058,1.017 2.15,2.038 3.241,3.113c2.321,2.191 4.68,4.425 7.038,6.641c0.971,0.913 1.971,1.817 2.946,2.725c2.487,2.317 4.971,4.634 7.491,6.917l0.846,0.771c8.675,7.841 17.388,15.521 26.142,22.891c0.879,0.75 1.758,1.509 2.637,2.192c2.496,2.096 4.971,4.175 7.442,6.167c0.954,0.787 1.904,1.575 2.888,2.358c2.504,2.009 5.008,4.058 7.512,6.017c0.758,0.616 1.517,1.221 2.279,1.771c8.679,6.866 17.392,13.408 26.071,19.654c0.45,0.304 0.904,0.616 1.358,0.979c2.588,1.813 5.146,3.587 7.705,5.35c0.9,0.642 1.829,1.287 2.729,1.921c2.487,1.7 4.975,3.371 7.462,5.017c0.921,0.608 1.817,1.154 2.709,1.758c2.562,1.679 5.146,3.342 7.704,4.958c0.467,0.338 0.929,0.6 1.4,0.875c8.629,5.425 17.208,10.454 25.737,15.138c0.721,0.375 1.471,0.82 2.221,1.196c2.454,1.345 4.9,2.654 7.346,3.879c0.946,0.516 1.921,0.971 2.867,1.475c2.416,1.191 4.829,2.416 7.237,3.55c0.867,0.446 1.729,0.82 2.592,1.258c8.558,4.038 17.054,7.637 25.475,10.804l0.708,0.25c2.367,0.95 4.75,1.775 7.134,2.596c0.645,0.2 1.262,0.408 1.908,0.604c-22.725,-27.2 -42.142,-61.216 -58.075,-101.896c-26.529,-67.704 -43.221,-152.858 -49.621,-253.079Z" style="fill:#009ad9;fill-rule:nonzero;"/><path d="M1332.85,580.004c-23.158,-61.225 -57.329,-114.591 -98.812,-158.266c-40.971,44.162 -74.463,97.962 -96.842,159.445c-80.908,222.696 -95.858,765.771 103.004,838.075l0.004,0c197.909,-74.662 176.375,-617.504 92.646,-839.254Z" style="fill:#009ad9;fill-rule:nonzero;"/><path d="M2227.6,770.529c-62.629,-95.317 -165.512,-150.233 -278.075,-160.237c5.858,42.383 6.404,85.691 1.692,128.766l-0.059,0.484c-0.591,5.225 -1.249,10.446 -1.983,15.662l-0.146,1.004c-0.716,5.05 -1.491,10.067 -2.346,15.075c-0.091,0.613 -0.212,1.192 -0.308,1.804c-0.825,4.738 -1.687,9.501 -2.687,14.25c-0.217,1.15 -0.471,2.267 -0.692,3.417c-0.917,4.179 -1.783,8.392 -2.767,12.563c-0.304,1.446 -0.725,2.854 -1.046,4.3c-0.924,3.866 -1.85,7.758 -2.916,11.608c-0.438,1.808 -0.996,3.579 -1.454,5.358c-1.009,3.5 -1.938,6.971 -2.954,10.454c-0.813,2.755 -1.7,5.459 -2.559,8.201c-0.783,2.499 -1.533,5.037 -2.354,7.529c-1.712,5.195 -3.5,10.4 -5.425,15.587c-41.571,114.329 -139.912,268.038 -250.504,391.554c-2.392,2.638 -4.754,5.346 -7.188,8.005c-0.404,0.383 -0.75,0.82 -1.158,1.204c-2.35,2.629 -4.729,5.2 -7.133,7.779c-0.396,0.491 -0.855,0.921 -1.25,1.408c-2.446,2.621 -4.905,5.242 -7.396,7.875l-0.813,0.913c-2.462,2.604 -4.954,5.212 -7.466,7.821l-0.667,0.691c-2.558,2.663 -5.213,5.388 -7.825,8.046c-0.392,0.408 -0.85,0.875 -1.246,1.283c-2.642,2.684 -5.241,5.304 -7.862,7.934c-0.371,0.437 -0.809,0.808 -1.246,1.246c-2.721,2.716 -5.459,5.433 -8.288,8.204l-0.062,0.066c-2.763,2.709 -5.609,5.467 -8.413,8.167c-0.404,0.329 -0.75,0.721 -1.154,1.054c-2.721,2.608 -5.458,5.275 -8.279,7.867c-0.438,0.416 -0.942,0.887 -1.437,1.362c-2.788,2.609 -5.588,5.217 -8.467,7.809l-0.934,0.854c-2.899,2.604 -5.754,5.258 -8.687,7.842l-0.467,0.416c-2.954,2.659 -5.933,5.238 -8.862,7.804c-0.5,0.388 -0.942,0.83 -1.446,1.221c-2.875,2.563 -5.813,5.058 -8.775,7.529c-0.433,0.371 -0.929,0.796 -1.4,1.159c-3.025,2.554 -6.096,5.091 -9.187,7.658l-0.263,0.217c-3.075,2.496 -6.162,4.97 -9.208,7.425c-0.409,0.275 -0.759,0.616 -1.171,0.896c-3.042,2.4 -6.046,4.779 -9.121,7.137c-0.55,0.379 -1.042,0.813 -1.592,1.187c-3.079,2.355 -6.17,4.684 -9.216,6.988c-0.421,0.267 -0.788,0.592 -1.209,0.863c-3.17,2.337 -6.35,4.658 -9.537,6.883l-0.288,0.262c-3.204,2.238 -6.42,4.492 -9.65,6.721c-0.471,0.325 -1.004,0.713 -1.533,1.034c-3.075,2.154 -6.221,4.22 -9.375,6.316c-0.554,0.325 -1.05,0.708 -1.608,1.033c-3.229,2.134 -6.471,4.18 -9.725,6.25l-0.638,0.359c-3.212,2.037 -6.437,3.983 -9.671,5.946l-1.087,0.629c-3.229,1.946 -6.467,3.804 -9.717,5.621c-0.587,0.362 -1.108,0.658 -1.696,1.012c-3.233,1.804 -6.471,3.571 -9.716,5.296c-0.488,0.229 -0.917,0.513 -1.409,0.733c-3.362,1.771 -6.729,3.517 -10.108,5.209l-0.067,0.037c-3.37,1.729 -6.816,3.359 -10.204,4.95c-0.475,0.221 -1.004,0.446 -1.537,0.667c-3.271,1.521 -6.542,2.996 -9.821,4.433c-0.525,0.229 -1.113,0.446 -1.696,0.729c-3.338,1.384 -6.679,2.792 -10.029,4.134l-0.846,0.304c-3.313,1.325 -6.629,2.537 -9.946,3.758l-1.033,0.334c-3.342,1.224 -6.692,2.32 -10.042,3.383c-0.587,0.225 -1.125,0.4 -1.712,0.571c-3.313,1.025 -6.629,2.062 -9.95,2.991c-0.517,0.125 -1.038,0.246 -1.5,0.371c-3.513,0.942 -6.963,1.846 -10.417,2.725c198.854,54.075 571.896,-57.175 731.8,-162.216c66.796,-43.855 118.587,-101.242 153.496,-164.821c68.554,-124.896 71.754,-273.7 -5.267,-390.963Z" style="fill:#009ad9;fill-rule:nonzero;"/></g></svg>