<svg xmlns="http://www.w3.org/2000/svg" viewBox="0 0 707.78 772.55" xmlns:xlink="http://www.w3.org/1999/xlink"><defs><path id="0" d="m-445.13 701.71c0 0 1.706-9.35 3.675-13.62 2.183-4.732 5.294-9.08 8.837-12.897 3.211-3.462 7.04-6.376 11.05-8.864 3.938-2.44 8.18-4.491 12.613-5.837 4.583-1.392 9.409-2.02 14.194-2.236 4.691-.214 9.424.152 14.06.917 3.566.589 7.118 1.465 10.473 2.81 4.01 1.607 7.807 3.763 11.357 6.217 1.64 1.133 4.54 3.891 4.54 3.891" stroke="#000" stroke-width="4.721" stroke-linecap="round"/></defs><g transform="translate(-12.795-86.48)"><g stroke="#000"><path d="m23.612 95.45l685.21 2.679-13.396 255.87-10.05 170.8-18.08 111.19-30.14 72.34-46.22 57.6-77.03 52.24-83.73 27.462-81.72 4.02-79.04-16.745-61.62-24.783-59.61-40.19-45.547-51.575-30.14-79.04-21.434-101.14-6.698-115.21-12.06-212.33z" fill="#da121a"/><g fill="#fcdd09" stroke-linecap="round" stroke-width="5"><path d="m30.844 218.19l7.625 105.66h656.44l7.438-105.66h-671.5z"/><path d="m43.5 429.5l5.156 84.81 1.531 20.844h632.06l4.156-35.03 2.844-70.62h-645.75z"/><path d="m69.906 640.81l7.5 20.875 19.438 47.75 29.22 36.12-.875.906h479.56l4-4.313 25.469-32.34 10.781-28.469 14.781-40.531h-589.87z"/></g></g><g transform="matrix(-1 0 0 1 735.74 0)"><path d="m589 333.24c-3.442.125-6.969.94-10.275 2.409-1.36.605-2.564 1.945-3.517 3.268-4.562 6.331-8.162 13.829-9.887 21.325-1.777 7.72 3.604 15.646-.111 22.793-1.018 1.959-3.306 3.784-5.124 3.656-7.664-.543-7.77-14.505-14.346-18-4.561-2.425-10.487-3.125-15.924-1.219-2.73.957-5.531 2.441-8.142 4.348-2.611 1.907-5.061 4.252-6.924 6.924-.532.763-.974 1.51-1.412 2.326-3.919 7.286-4.062 16.453-2.576 23.762 1.522 7.483 9.119 10.947 11.272 18.11 2.153 7.165 7.504 18.344 1.274 23.624-5.443 4.612-9.644-7.769-15.703-8.336-5.901-.552-12.661 1.099-18.278 4.957-5.108 3.508-9.463 9.268-12.158 15.232-3.15 6.973-4.04 14.924-3.85 22.1.228 8.474 2.792 16.384 5.927 23.513 3.454 7.855 8.885 14.09 13.93 20.577 4.724 6.074 18.917 8.544 15.204 17.09-2.075 4.773-8.734.148-13.155 1.274-3.86.983-8.153 1.811-11.466 4.708-5.887 5.149-10.957 12.821-12.795 20.549-2.178 9.163-.993 18.457 3.185 26.2 3.124 5.788 9.73 8.895 15.07 12.74 7.392 5.325 16.536 8.01 23.347 14.207 4.164 3.788 7.371 8.705 10.302 13.681 2.589 4.395 5.211 8.993 6.342 14.12.759 3.443.953 7 .914 10.607l.249.028c-1.813 5.408-4.338 10.645-6.868 15.731-.083.166-.166.332-.249.499-6.49-13.681-23.979-27.16-37.745-38.838-11.772-9.988-24.75-18.562-38.03-26.439-12.01-7.124-23.753-21.322-37.471-18.722-2.077.394-4.241 4.713-4.241 4.713l14.1 8.573c0 0-11.692 2.599-11.49 7.097.643 14.352 26.686 11.171 38.546 19.278 12.88 8.804 24.269 19.807 34.706 31.403 9.985 11.09 26.393 36.17 26.393 36.17-4.642 5.334-10.713 9.243-16.01 13.93-3.465 3.068-8.648 4.955-10.302 9.278-3.464 9.05-5.989 25.491 3.074 28.913 13.1 4.946 21.312-18.245 30.963-28.387 12.631-13.274 25.513-26.696 35.09-42.32 4.849-7.911 14.391-19.923 13.183-28.858.1-.282.123-.34.111-.305 2.207-6.188 6.674-17.918 6.674-17.918 0 0 9.05-10.372 14.29-14.429 8.595-6.655 18.562-9.91 27.528-15.731 6.432-4.175 13.828-7.365 18.749-13.792 5.789-7.56 10.217-17.423 10.607-26.531.329-7.683-2.606-15.13-7.09-19.968-2.523-2.722-6.604-3.313-10.219-4.071-4.141-.869-12.189 4.162-12.933-.526-1.332-8.392 13.766-11.729 20.245-18.14 6.921-6.848 14.13-13.444 19.829-21.574 5.174-7.378 9.979-15.534 12.601-24.09 2.221-7.249 3.535-15.176 2.326-22.02-1.034-5.852-3.76-11.421-7.921-14.65-4.576-3.551-10.925-4.791-17.03-3.877-6.271.938-14.06 13.684-18.251 9.361-4.792-4.948 3.837-16.572 8.03-23.928 4.194-7.356 12.803-11.278 16.451-18.915 3.563-7.461 6.02-16.65 4.126-23.762-1.698-6.372-7.12-10.937-12.795-12.767-4.945-1.595-11.11-.533-16.395 2.188-7.619 3.923-11.67 17.989-19.552 18.999-1.869.239-3.653-1.409-4.126-3.323-1.728-6.983 5.926-15.364 6.314-23.04.377-7.456-1.147-14.773-3.96-20.882-.588-1.277-1.402-2.574-2.603-3.102-2.594-1.14-5.525-1.739-8.558-1.8-.487-.001-.976-.018-1.468 0z" fill="#fff" stroke="#000" stroke-linejoin="round" stroke-linecap="round" stroke-width="5" id="1"/><g transform="translate(33.407 29.01)"><path d="m431.43 593.92c1.811-6.395-1.499-13.593-4.826-19.347-3.356-5.804-9.289-9.718-14.486-13.953-2.552-2.079-5.221-4.07-8.145-5.581-2.89-1.494-6.02-2.523-9.157-3.377-3.495-.951-7.07-2.01-10.695-1.926-6.929.159-15.625-.523-20.272 4.619-4.088 4.524-3.121 12.12-2.242 18.16.795 5.46 3.658 10.519 6.632 15.166 2.397 3.745 5.693 6.851 8.859 9.972 3.449 3.399 6.786 7.102 10.998 9.491 6.802 3.859 14.649 9.146 22.269 7.385 9.57-2.211 18.388-11.155 21.06-20.606z" fill="#fff" stroke="#000" stroke-width="3" id="9"/><path d="m396.17 617.45c1.153-2.363 3.955-3.466 5.93-5.201 3.213-2.824 6.731-5.336 9.632-8.479 3.297-3.571 6.168-7.548 8.732-11.677 1.391-2.241 2.308-4.745 3.576-7.06 1.676-3.057 4.07-5.748 5.323-9 .486-1.262-.443-3.466.81-3.975 4.207-1.709 7.918 4.595 11.257 7.672 2.721 2.508 5.183 5.398 6.98 8.633 2.123 3.823 3.796 8.05 4.302 12.393.62 5.316.364 11.01-1.633 15.973-1.43 3.554-4.237 6.483-7.07 9.06-2.549 2.314-5.582 4.112-8.714 5.54-2.359 1.076-4.892 1.832-7.455 2.222-2.734.416-5.535.262-8.296.103-3.293-.189-6.635-.384-9.816-1.256-2.591-.71-5.155-1.717-7.398-3.196-2.483-1.637-5.383-3.37-6.479-6.135-.692-1.743-.499-3.931.323-5.616z" fill="#fff" stroke="#000" stroke-width="3" id="A"/><g fill="none" stroke="#000"><path d="m430.77 573.73c0 0 1.627 7.689 2.094 11.586.657 5.48.965 11.01.992 16.528.033 6.532-.363 13.07-.979 19.572-.374 3.944-1.646 11.769-1.646 11.769" id="B"/><path d="m426.49 580.84c0 0 .49 4.991.678 7.492.414 5.504.965 11.01.992 16.527.033 6.532-.212 13.09-.979 19.572-.363 3.072-1.712 9.122-1.712 9.122" id="C"/><path d="m421.81 589.02c0 0 .186 3.288.237 4.933.172 5.516.461 11.04.237 16.555-.266 6.527-1.147 13.02-1.871 19.507-.153 1.374-.523 4.114-.523 4.114" id="D"/><path d="m436.38 573.86c0 0 1.627 7.689 2.094 11.586.657 5.48.965 11.01.992 16.527.033 6.532-.414 13.06-.979 19.572-.252 2.904-1.074 8.677-1.074 8.677" id="E"/><path d="m442.68 580.77c0 0 .73 5.304.973 7.969.5 5.496 1.01 11.01.992 16.527-.019 6.535-.036 13.148-1.29 19.562-.176.902-.867 2.616-.867 2.616" id="F"/><path d="m447.17 585.9c0 0 1 2.791 1.256 4.244.954 5.436.981 11.01.992 16.527.007 3.429.072 2.645-.305 6.578-.148 1.538.005 4.6-.493 7.71" id="G"/><path d="m417.26 596.33c0 0 .278 2.506.316 3.765.143 4.662-.062 9.331-.316 13.988-.183 3.347-.479 6.69-.868 10.02-.352 3.02-.609 6.185-1.325 9.01" id="H"/><path d="m412.63 602.9c.143 3.566-.101 2.557-.16 3.835-.077 1.648-.111 3.299-.255 4.942-.52 5.925-1.457 11.805-2.199 17.706-.172 1.372-.523 4.114-.523 4.114" id="I"/><path d="m407.89 606.56c-.19 5.516-.75 6.619-1.175 9.923-.614 4.78-.837 7.89-1.986 14.321" id="J"/><path d="m402.46 611.27c-.19 5.516-.719 6.623-1.175 9.923-.312 2.26.081.33-1.068 6.76" id="K"/><path d="m396.53 616.96c0 0 3.163 3.273 5.02 4.572 2.966 2.081 6.232 3.774 9.62 5.059 3.502 1.329 7.224 2.024 10.911 2.683 3.692.659 7.439.987 11.18 1.262.914.067 2.748.094 2.748.094" id="L"/><path d="m399.81 612.29c0 0 3.425 3.282 5.428 4.586 3.208 2.089 6.74 3.791 10.401 5.086 3.785 1.338 7.806 2.044 11.789 2.713 3.988.669 8.04 1.01 12.08 1.292.987.07 2.967.101 2.967.101" id="M"/><path d="m405.48 610.37c0 0 3.734 2.925 5.857 4.02 3.4 1.759 7.084 3.102 10.855 4.03 3.899.955 7.971 1.258 12 1.527 4.03.27 8.096.204 12.144.085.989-.029 2.962-.194 2.962-.194" id="N"/><path d="m408.65 606.03c0 0 3.855 2.764 6.02 3.772 3.472 1.614 7.209 2.8 11.02 3.563 3.936.789 8.02.919 12.05 1.017 4.04.098 8.098-.14 12.136-.429.987-.071 2.951-.32 2.951-.32" id="O"/><path d="m412.28 603.32c0 0 1.852.877 2.808 1.242 3.606 1.376 7.209 2.8 11.02 3.563 3.936.789 8.02.919 12.05 1.017 4.04.098 8.098-.14 12.137-.429.987-.071 2.951-.32 2.951-.32" id="P"/><path d="m415.61 598.86c3.472 1.614 7.209 2.8 11.02 3.563 3.936.789 8.02.919 12.05 1.017 4.04.098 8.098-.14 12.137-.43.987-.071 2.951-.32 2.951-.32" id="Q"/><path d="m418.89 593.33c3.472 1.614 7.209 2.8 11.02 3.563 3.936.789 8.02.899 12.05 1.017 3.493.103 6.993-.039 10.48-.266" id="R"/><path d="m421.89 588.82c3.472 1.614 5.168 1.936 7.863 2.465 3.957.777 8.02.95 12.05 1.017 2.875.048 5.129-.213 8.616-.44" id="S"/><path d="m424.03 584.1c3.472 1.614 3.694 1.083 5.589 1.397 3.978.661 8.02 1.02 12.05 1.017 1.741 0 1.718-.219 5.205-.446" id="T"/><path d="m427.39 578.98c3.472 1.614 2.192.502 3.303.659 3.993.565 8.02 1.02 12.05 1.017" id="U"/></g></g><path d="m547.39 667.97l36.504-280.22-44.641 271.66z" stroke="#000" id="2"/><path d="m618.14 411.27c0 0-18.509 15.899-26.556 25.348-6.527 7.664-17.32 25.07-17.32 25.07" fill="#f2f2f2" stroke="#000" stroke-linecap="round" stroke-width="2" id="3"/><path d="m624.16 466.43c0 0-23.19 19.876-33.27 31.688-8.176 9.581-21.694 31.34-21.694 31.34" fill="#f2f2f2" stroke="#000" stroke-linecap="round" stroke-width="2" id="4"/><path d="m601.49 555.66c0 0-21.18 18.17-30.391 28.971-7.469 8.76-19.819 28.653-19.819 28.653" fill="#f2f2f2" stroke="#000" stroke-linecap="round" stroke-width="2" id="5"/><path d="m543.26 413.52c0 0 14.177 14.917 19.624 23.96 4.418 7.335 10.388 24.24 10.388 24.24" fill="#f2f2f2" stroke="#000" stroke-linecap="round" stroke-width="2" id="6"/><path d="m521.62 469.51c0 0 17.773 18.645 24.603 29.948 5.54 9.169 13.03 30.3 13.03 30.3" fill="#f2f2f2" stroke="#000" stroke-linecap="round" stroke-width="2" id="7"/><path d="m519.28 558.14c0 0 16.232 17.05 22.469 27.382 5.059 8.383 11.897 27.7 11.897 27.7" fill="#f2f2f2" stroke="#000" stroke-linecap="round" stroke-width="2" id="8"/></g><g><use xlink:href="#1"/><g transform="translate(33.407 29.01)"><use xlink:href="#9"/><use xlink:href="#A"/><g fill="#fff" stroke="#000"><use xlink:href="#B"/><use xlink:href="#C"/><use xlink:href="#D"/><use xlink:href="#E"/><use xlink:href="#F"/><use xlink:href="#G"/><use xlink:href="#H"/><use xlink:href="#I"/><use xlink:href="#J"/><use xlink:href="#K"/><use xlink:href="#L"/><use xlink:href="#M"/><use xlink:href="#N"/><use xlink:href="#O"/><use xlink:href="#P"/><use xlink:href="#Q"/><use xlink:href="#R"/><use xlink:href="#S"/><use xlink:href="#T"/><use xlink:href="#U"/></g></g><use xlink:href="#2"/><use xlink:href="#3"/><use xlink:href="#4"/><use xlink:href="#5"/><use xlink:href="#6"/><use xlink:href="#7"/><use xlink:href="#8"/></g><g stroke="#000"><g transform="matrix(-1.12157 0 0 1-73.22 31.57)" fill="#078930"><path d="m366.22 663c-48.49 0-88.68 31.788-95.69 73.28-14.201-25.24-43.484-42.563-77.31-42.563-31.595 0-59.24 15.1-74.31 37.656l38.781 42.75 48.719 34.09 31.03 14 38.37 12.781 74.28 12.781 75.5-6.094 51.75-10.938 63.906-28.625 43.844-34.09 31.531-31.531c-14.16-25.351-43.514-42.781-77.44-42.781-33.843 0-63.12 17.335-77.31 42.594-6.871-40.793-45.778-72.24-93.16-73.31-.83-.019-1.665 0-2.5 0z" transform="matrix(-.89161 0 0 1-65.29-31.57)" stroke-linejoin="round" stroke-linecap="round" stroke-width="5"/><g stroke-width=".944"><use xlink:href="#0"/><path d="m-425.09 701.94c0 0 1.071-5.671 2.307-8.261 1.37-2.87 3.323-5.505 5.547-7.822 2.02-2.1 4.417-3.868 6.937-5.376 2.472-1.48 5.134-2.724 7.917-3.54 2.877-.844 5.906-1.224 8.909-1.356 2.944-.13 5.915.092 8.823.556 2.238.357 4.468.888 6.573 1.705 2.514.975 4.9 2.283 7.129 3.771 1.029.687 2.849 2.36 2.849 2.36" stroke-linecap="round" stroke-width="4.721"/></g><g stroke-width=".944"><g transform="translate(-152.13 20.17)"><use xlink:href="#0"/><path d="m-425.09 701.94c0 0 1.071-5.671 2.307-8.261 1.37-2.87 3.323-5.505 5.547-7.822 2.02-2.1 4.417-3.868 6.937-5.376 2.472-1.48 5.134-2.724 7.917-3.54 2.877-.844 5.906-1.224 8.909-1.356 2.944-.13 5.915.092 8.823.556 2.238.357 4.468.888 6.573 1.705 2.514.975 4.9 2.283 7.129 3.771 1.029.687 2.849 2.36 2.849 2.36" stroke="#000" stroke-linecap="round" stroke-width="4.721" id="V"/></g><g transform="translate(158.91 19.939)"><use xlink:href="#0"/><use xlink:href="#V"/></g></g></g><g fill="none" stroke-width="20"><path d="m368.88 849.02c-20.737-.002-41.474-1.812-61.899-5.401-26.24-4.611-51.999-12.178-76.32-23.05-22.989-10.275-44.635-23.471-64.64-38.763-17.481-13.363-33.795-28.403-47.36-45.732-18.84-24.07-32.03-52.13-42.27-80.932-8.456-23.779-15.01-48.24-19.487-73.08-8.01-44.41-9.374-89.7-11.367-134.78-1.317-29.787-2.918-59.56-4.872-89.31-2.63-40.06-5.899-80.08-8.119-120.17-1.649-29.771-2.719-59.58-4.872-89.31-1.256-17.353-2.88-34.68-4.872-51.965 57.38 0 114.76 0 172.13 0 56.3 0 112.59 0 168.89 0"/><path d="m365.02 848.98c20.484.282 40.994-1.366 61.17-4.915 26.352-4.636 52.14-12.525 76.52-23.543 22.944-10.369 44.621-23.494 64.64-38.763 17.496-13.345 33.8-28.399 47.36-45.732 18.831-24.08 32.03-52.13 42.27-80.932 8.458-23.778 15.01-48.24 19.487-73.08 8.01-44.41 9.374-89.7 11.367-134.78 1.317-29.787 2.918-59.56 4.872-89.31 2.63-40.06 5.899-80.08 8.119-120.17 1.649-29.771 2.719-59.58 4.872-89.31 1.256-17.353 2.88-34.68 4.872-51.965-57.38 0-114.76 0-172.13 0-56.3 0-112.59 0-168.89 0"/><path d="m360.42 96.49h13.789"/></g></g><g font-family="Sans" text-anchor="middle" text-align="center" stroke="none" word-spacing="0" line-height="125%" letter-spacing="0"><text x="448.7" y="794.99" transform="matrix(.9907.1361-.1361.9907 0 0)" fill="#0f0406" font-size="5.422"><tspan x="448.7" y="794.99">Christian Duscha</tspan></text><text x="212.22" y="925.13" transform="matrix(.96906-.24682.24682.96906 0 0)" fill="#0b0406" font-size="4.934"><tspan x="212.22" y="925.13">Gleiwitz-Essen-Landshut</tspan></text></g><g stroke="#000"><path d="m64.42 621.38l14.83 39.39 12.512 31.05 18.07 32.44" fill="none"/><path d="m366.23 129.14c-.181 0-.193.267-.031.688.166-.428.214-.688.031-.688zm-.031.688c-.984 2.539-7.627 11.965-14.563 21.16-10.247 3.687-17.25 11.129-17.25 19.719 0 8.994 7.685 16.736 18.719 20.22-1.222 2.386.308 6.438-.156 9.375-.235 1.484.194 3.415-.906 4.438-1.044.97-2.799.654-4.219.531-2.21-.191-4.467-.837-6.375-1.969-3.261-1.935-5.447-5.253-8.125-7.938-2.207-2.212-3.996-4.935-6.563-6.719-2.751-1.913-5.947-3.21-9.188-4.063-2.62-.689-5.341-1.031-8.06-1.094-.907-.021-1.817-.005-2.719.031-2.333.093-4.64.575-6.875 1.25-1.844.557-3.8 1.088-5.313 2.281-1.619 1.278-3.954 2.889-3.719 4.938.22 1.911 2.895 2.568 4.438 3.719 2.659 1.984 5.887 3.203 8.281 5.5 2.254 2.162 4.162 4.771 5.5 7.594 1.959 4.133 2.033 8.929 3.531 13.25 1.219 3.516 2.238 7.225 4.406 10.25 1.896 2.645 4.361 5.065 7.25 6.563 4.988 2.585 10.933 2.566 16.438 3.688 3.265.665 6.559 2.155 9.844 2.219v6.781c-2.506 3.3-4 7.417-4 11.875 0 8.233 5.093 15.243 12.281 18.16-.292.796-.596 1.603-.844 2.219-.87 2.163-1.776 4.319-2.875 6.375-.927 1.733-1.941 3.431-3.125 5-1.386 1.837-2.901 3.601-4.625 5.125-1.72 1.52-3.685 2.735-5.625 3.969-6.501-.208-12.877-.476-19.06-.844l-.969-5.344c-2.341-6.322-4.46-14.273-6-23.25-1.259-7.339-2.461-13.865-2.719-20.406l-1.031-8.656-2.938 8.219c-1.714 6.353-4.313 12.529-7.188 19.469-3.538 8.541-7.398 15.946-11.125 21.688l-2.281 5.25c-8.545-1.026-16.467-2.233-23.719-3.563-1.656-1.816-3.581-3.65-4.469-5.594-.85-1.862-1.669-3.773-2.062-5.781-.227-1.157-.381-2.374-.156-3.531.223-1.15.661-2.34 1.469-3.188 1.464-1.536 3.571-2.545 5.656-2.938 1.089-.205 2.244-.045 3.281.344 1.544.579 2.919 1.656 4.062 2.844 1.889 1.961 1.986 5.66 4.438 6.844.74.357 1.686.115 2.437-.219 2.118-.939 3.713-2.875 5.156-4.688 1.985-2.492 3.751-5.289 4.656-8.344.988-3.334 1.142-6.959.687-10.406-.457-3.477-1.585-6.921-3.375-9.938-1.529-2.578-3.882-4.602-6.094-6.625-1.689-1.544-3.531-2.922-5.438-4.188-1.648-1.094-3.925-1.389-5.156-2.938-.532-.669-.73-1.615-.75-2.469-.016-.674.099-1.396.5-1.938.851-1.15 3.01-.959 3.687-2.219.933-1.73.127-3.947-.25-5.875-.65-3.326-2.02-6.516-3.437-9.594-1.38-2.995-2.905-5.973-4.906-8.594-2.036-2.666-4.29-5.3-7.125-7.094-1.67-1.057-3.815-2.902-5.656-2.844-.425.013-.836.128-1.219.375-3.379 2.181.159 8.171-.969 12.03-.441 1.51-1.236 2.927-2.219 4.156-1.884 2.356-4.69 3.827-6.875 5.906-3.102 2.951-6.447 5.744-8.813 9.313-1.579 2.381-2.817 5.086-3.438 7.875-.693 3.115 2.035 7.335-.25 9.563-1.582 1.541-4.449.377-6.625 0-1.438-.249-2.723-1.063-4.125-1.469-2.512-.727-5.966-3.714-7.656-1.719-2.109 2.489 2.375 6.076 3.687 9.06 2.152 4.894 5.065 9.47 6.875 14.5 1.499 4.165 2.189 8.577 3.25 12.875.945 3.824.705 8.272 1.469 12.188-.08.054-.172.102-.25.156.352 2.538.531 5.27.531 8.094 0 2.422-.144 4.749-.406 6.969v21.563l.031 18.75h282.72l-.031-18.75v-21.563c-.262-2.22-.406-4.546-.406-6.969 0-2.823.179-5.556.531-8.094-.078-.054-.171-.103-.25-.156.764-3.915.524-8.363 1.469-12.188 1.061-4.298 1.751-8.71 3.25-12.875 1.81-5.03 4.724-9.606 6.875-14.5 1.313-2.986 5.796-6.574 3.688-9.06-1.69-1.995-5.145.992-7.656 1.719-1.402.406-2.687 1.22-4.125 1.469-2.176.377-5.04 1.541-6.625 0-2.285-2.227.443-6.448-.25-9.563-.621-2.789-1.859-5.494-3.438-7.875-2.366-3.569-5.711-6.361-8.813-9.313-2.185-2.079-4.991-3.55-6.875-5.906-.983-1.229-1.778-2.646-2.219-4.156-1.127-3.86 2.41-9.851-.969-12.03-2.043-1.319-4.82 1.168-6.875 2.469-2.835 1.794-5.089 4.428-7.125 7.094-2 2.62-3.526 5.599-4.906 8.594-1.419 3.078-2.787 6.267-3.438 9.594-.377 1.928-1.182 4.145-.25 5.875.679 1.26 2.836 1.069 3.688 2.219.402.542.516 1.263.5 1.938-.02.854-.219 1.8-.75 2.469-1.231 1.549-3.508 1.843-5.156 2.938-1.907 1.266-3.748 2.643-5.438 4.188-2.212 2.023-4.564 4.047-6.094 6.625-1.789 3.02-2.917 6.46-3.375 9.938-.454 3.447-.3 7.07.688 10.406.905 3.055 2.672 5.852 4.656 8.344 1.443 1.812 3.039 3.748 5.156 4.688.751.333 1.697.576 2.438.219 2.452-1.184 2.549-4.882 4.438-6.844 1.144-1.188 2.518-2.265 4.063-2.844 1.037-.389 2.193-.549 3.281-.344 2.085.393 4.193 1.401 5.656 2.938.808.848 1.246 2.038 1.469 3.188.225 1.157.07 2.375-.156 3.531-.393 2.01-1.212 3.92-2.063 5.781-.888 1.944-2.813 3.778-4.469 5.594-7.252 1.33-15.172 2.536-23.719 3.563l-2.281-5.25c-3.727-5.741-7.587-13.147-11.125-21.688-2.875-6.939-5.473-13.12-7.188-19.469l-2.938-8.219-1.031 8.656c-.258 6.541-1.46 13.07-2.719 20.406-1.54 8.977-3.659 16.928-6 23.25l-.969 5.344c-6.18.367-12.564.636-19.06.844-1.94-1.233-3.905-2.449-5.625-3.969-1.724-1.524-3.239-3.288-4.625-5.125-1.184-1.569-2.198-3.267-3.125-5-1.099-2.056-2-4.212-2.875-6.375-.248-.615-.552-1.423-.844-2.219 7.188-2.913 12.281-9.923 12.281-18.16 0-4.475-1.509-8.573-4.03-11.875v-6.75c3.295-.055 6.599-1.583 9.875-2.25 5.505-1.121 11.449-1.103 16.438-3.688 2.889-1.497 5.354-3.917 7.25-6.563 2.168-3.03 3.187-6.734 4.406-10.25 1.498-4.321 1.572-9.117 3.531-13.25 1.338-2.823 3.246-5.431 5.5-7.594 2.394-2.297 5.622-3.516 8.281-5.5 1.542-1.15 4.218-1.807 4.438-3.719.235-2.049-2.1-3.66-3.719-4.938-1.512-1.194-3.468-1.724-5.313-2.281-2.235-.675-4.542-1.157-6.875-1.25-3.609-.144-7.288.144-10.781 1.063-3.24.852-6.437 2.15-9.188 4.063-2.566 1.784-4.355 4.506-6.563 6.719-2.678 2.684-4.864 6-8.125 7.938-1.908 1.132-4.165 1.778-6.375 1.969-1.42.123-3.175.439-4.219-.531-1.1-1.023-.672-2.954-.906-4.438-.464-2.937 1.066-6.989-.156-9.375 11.03-3.483 18.719-11.225 18.719-20.22 0-8.589-7.01-16.03-17.25-19.719-6.946-9.205-13.625-18.634-14.594-21.16z" fill="#fff" stroke-linejoin="round" stroke-linecap="round" stroke-width="5"/><g><path d="m461.12 249.9c-1.772-.489-3.705.984-5.03 2.256-1.307 1.253-1.889 3.13-2.429 4.858-.366 1.171-.53 2.417-.521 3.644.008 1.113.078 2.276.521 3.297.262.605.695 1.155 1.215 1.562.449.351 1.046.935 1.562.694.763-.357.536-1.602.694-2.429.218-1.142.039-2.349.347-3.47.254-.923.798-1.741 1.215-2.603.45-.932.783-1.937 1.388-2.776.622-.863 1.849-1.273 2.256-2.256.133-.321.104-.71 0-1.041-.212-.673-.534-1.547-1.215-1.735z"/><path d="m474.83 212.59c-1.769.248-2.01 3-2.603 4.685-.566 1.605-.722 3.336-.868 5.03-.138 1.614-.289 3.265 0 4.858.265 1.459.64 3 1.562 4.164.389.49.971 1.247 1.562 1.041 1.606-.561 1.298-3.178 1.562-4.858.287-1.828.036-3.702 0-5.552-.029-1.505-.145-3.01-.174-4.511-.024-1.272.487-2.642 0-3.817-.188-.453-.555-1.109-1.041-1.041z"/><path d="m236.47 246.79c1.334.071 2.383-1.47 3.01-2.652 1.134-2.154.032-4.968.884-7.248.995-2.664 2.884-4.945 4.773-7.07 1.499-1.686 3.456-2.903 5.126-4.419 1.388-1.261 3.151-2.252 4.066-3.889.823-1.473 1.377-3.292 1.061-4.95-.119-.626-.61-1.14-1.061-1.591-.451-.451-.959-1.142-1.591-1.061-1.407.181-2.063 1.987-2.828 3.182-.555.867-.609 2.01-1.237 2.828-1.331 1.728-3.458 2.661-5.126 4.066-1.692 1.424-3.568 2.692-4.95 4.419-1.137 1.421-1.977 3.083-2.652 4.773-.7 1.752-1.177 3.609-1.414 5.48-.252 1.988-.726 4.143 0 6.01.348.894.987 2.071 1.945 2.121z"/><path d="m258.39 257.57c.844.234 1.261-1.22 1.945-1.768.956-.767 1.871-1.655 3.01-2.121.995-.409 2.107-.511 3.182-.53 1.367-.024 2.759.131 4.066.53 1.01.308 1.983.784 2.828 1.414 1.036.772 1.373 2.642 2.652 2.828.81.118 1.888-.453 2.121-1.237.188-.631-.56-1.194-.884-1.768-.65-1.153-1.114-2.499-2.121-3.359-.683-.582-1.616-.801-2.475-1.061-1.549-.469-3.159-.771-4.773-.884-1.353-.095-2.75-.153-4.066.177-1.585.397-3.086 1.177-4.419 2.121-.476.337-.979.714-1.238 1.237-.395.799-.424 1.763-.353 2.652.049.613-.062 1.603.53 1.768z"/><path d="m247.61 281.44c-.767.914-1.193 2.166-1.237 3.359-.032.857.132 1.838.707 2.475.638.707 1.719 1.252 2.652 1.061 1.143-.235 2.106-1.368 2.475-2.475.395-1.186-.227-2.5-.53-3.712-.167-.669-.142-1.549-.707-1.945-.338-.237-.839-.108-1.237 0-.79.214-1.595.61-2.121 1.237z"/><path d="m299.4 290.63c1.871 1.075 3.963-2.02 5.303-3.712 1.183-1.492 1.341-3.566 2.121-5.303.594-1.322 1.189-2.652 1.945-3.889.571-.935 1.628-1.602 1.945-2.652.357-1.186.051-2.495-.177-3.712-.137-.733.001-1.907-.707-2.121-1-.302-1.863 1.092-2.475 1.945-1.238 1.727-1.448 3.995-2.121 6.01-.372 1.114-.59 2.283-1.061 3.359-.571 1.306-1.256 2.58-2.121 3.712-.455.596-1.197.953-1.591 1.591-.49.793-.697 1.739-.884 2.652-.143.695-.792 1.768-.177 2.121z"/><path d="m356.32 251.53c-1.157.227-1.89 1.492-2.5 2.5-.723 1.195-1.08 2.613-1.25 4-.173 1.409-.055 2.864.25 4.25.269 1.224.148 3.244 1.375 3.5.692.144 1.229-.847 1.5-1.5.494-1.193-.287-2.616 0-3.875.278-1.217 1.029-2.278 1.625-3.375.536-.986 1.571-1.767 1.75-2.875.089-.549-.017-1.2-.375-1.625-.553-.657-1.532-1.165-2.375-1z"/><path d="m348.94 306.9c1.626-.27 3.339-.523 4.75-1.375 1.286-.777 2.14-2.115 3.125-3.25.798-.919 1.635-1.825 2.25-2.875.547-.935 1.871-2.112 1.25-3-.526-.752-1.869-.131-2.75.125-.323.094-.595.315-.875.5-1.265.836-2.446 1.796-3.625 2.75-.941.762-1.917 1.496-2.75 2.375-.797.841-1.387 1.857-2.125 2.75-.602.728-2.284 1.273-1.875 2.125.379.79 1.761.019 2.625-.125z"/><path d="m310.71 199.24c.38 1.148 1.885 1.54 2.652 2.475.923 1.125 1.671 2.399 2.298 3.712.538 1.127.015 3.282 1.237 3.536 1.021.212 1.798-1.307 2.121-2.298.478-1.466.141-3.208-.53-4.596-.653-1.351-2.074-2.17-3.182-3.182-.68-.621-1.244-1.491-2.121-1.768-.677-.214-1.596-.3-2.121.177-.488.443-.561 1.319-.354 1.945z"/><path d="m322.21 220.45c-.502 1.137-.099 2.554.354 3.712.673 1.723 2.025 3.137 3.359 4.419 2.074 1.994 4.312 4.136 7.07 4.95 1.527.45 3.337.511 4.773-.177 1.055-.505 2.607-1.524 2.298-2.652-.345-1.258-2.514-.721-3.712-1.237-1.719-.741-3.335-1.705-4.95-2.652-1.509-.885-3.201-1.574-4.419-2.828-.718-.739-.976-1.824-1.591-2.652-.522-.703-.896-1.862-1.768-1.945-.587-.056-1.176.522-1.414 1.061z"/><path d="m357.56 213.91c1.714-.451 3.795-.244 5.127-1.414.913-.802 1.1-2.185 1.414-3.359.368-1.377.918-2.871.53-4.243-.308-1.089-1.043-2.308-2.121-2.652-.409-.13-.928.057-1.237.354-.673.644-.498 1.804-.884 2.652-.481 1.058-1.236 1.972-1.768 3.01-.265.516-.232 1.258-.707 1.591-.677.475-1.807-.311-2.475.177-.513.374-.751 1.135-.707 1.768.066.948.54 2.102 1.414 2.475.447.191.944-.23 1.414-.354z"/><path d="m385.67 216.21c.665 1.057 2.309 1 3.536 1.237 1.332.256 2.712.269 4.066.177 1.315-.09 2.761-.027 3.889-.707.899-.542 1.287-1.657 1.945-2.475 1.627-2.02 3.357-3.961 4.95-6.01 1.346-1.731 2.515-3.595 3.889-5.303 1.23-1.529 2.23-3.371 3.889-4.419.725-.458 1.726-.289 2.475-.707 1.602-.895 2.631-2.569 4.066-3.712.729-.581 2.239-.661 2.298-1.591.05-.791-1.101-1.161-1.768-1.591-.865-.558-1.801-1.295-2.828-1.237-2.583.145-4.862 2.086-6.718 3.889-1.689 1.641-2.473 4.01-3.712 6.01-1.059 1.71-1.819 3.647-3.182 5.127-1.341 1.456-3.273 2.243-4.773 3.536-1.073.925-1.696 2.463-3.01 3.01-.817.338-1.768 0-2.652 0-1.12 0-2.297-.354-3.359 0-1.118.373-2.301 1.067-2.828 2.121-.158.316.019.708 0 1.061-.029.533-.461 1.139-.177 1.591z"/><path d="m345.89 174.31c.869.113 1.489-1.019 1.945-1.768.476-.781.499-1.761.707-2.652.477-2.048.386-4.264 1.237-6.187.683-1.541 1.751-2.941 3.01-4.066 1.219-1.093 3.03-1.377 4.243-2.475.595-.537 1.135-1.193 1.414-1.945.247-.665.597-1.55.177-2.121-.644-.875-2.097-.774-3.182-.707-1.935.118-3.894.831-5.48 1.945-1.748 1.227-2.824 3.213-4.066 4.95-.847 1.184-1.855 2.326-2.298 3.712-.557 1.744-.519 3.657-.354 5.48.088.968.32 1.937.707 2.828.475 1.094.761 2.851 1.945 3.01z"/></g><g stroke-linecap="round"><g fill="#fff"><path d="m-826.8 843.38c0 7.371-63.59 13.347-142.04 13.347-78.44 0-142.04-5.976-142.04-13.347 0-7.371 63.59-13.347 142.04-13.347 78.45 0 142.04 5.976 142.04 13.347z" transform="matrix(.99523 0 0 1.953 1330.45-1299.07)" stroke-width="3.586"/><path d="m-826.8 843.38c0 7.371-63.59 13.347-142.04 13.347-78.44 0-142.04-5.976-142.04-13.347 0-7.371 63.59-13.347 142.04-13.347 78.45 0 142.04 5.976 142.04 13.347z" transform="matrix(.86793 0 0 1.18246 1207.12-647.98)" stroke-width="4.936"/></g><g fill="none" stroke-width="5"><path d="m326.84 336.4v17.292"/><path d="m314.95 338.46v17.292"/><path d="m303.06 338.46v17.292"/><path d="m291.17 339.69v17.292"/><path d="m279.29 339.69v17.292"/><path d="m267.4 340.93v17.292"/><path d="m255.51 342.88v13.271"/></g></g></g></g></svg>